<?xml version="1.0" encoding="UTF-8"?> <svg xmlns="http://www.w3.org/2000/svg" xmlns:xlink="http://www.w3.org/1999/xlink" width="50px" height="51px" viewBox="0 0 50 51" version="1.1"><title>icon-more</title><defs><linearGradient x1="50%" y1="0%" x2="50%" y2="100%" id="linearGradient-1"><stop stop-color="#000000" stop-opacity="0.502424333" offset="0%"></stop><stop stop-color="#000000" stop-opacity="0.1" offset="100%"></stop></linearGradient><circle id="path-2" cx="25" cy="25" r="25"></circle><filter x="-1.0%" y="-1.0%" width="102.0%" height="104.0%" id="filter-3"><feOffset dx="0" dy="1" in="SourceAlpha" result="shadowOffsetOuter1"></feOffset><feComposite in="shadowOffsetOuter1" in2="SourceAlpha" operator="out" result="shadowOffsetOuter1"></feComposite><feColorMatrix values="0 0 0 0 1 0 0 0 0 1 0 0 0 0 1 0 0 0 0.145124529 0" type="matrix" in="shadowOffsetOuter1"></feColorMatrix></filter><linearGradient x1="100%" y1="50%" x2="0%" y2="50%" id="linearGradient-4"><stop stop-color="#FFFFFF" offset="0%"></stop><stop stop-color="#FFFFFF" offset="100%"></stop></linearGradient></defs><g id="Page-1" stroke="none" stroke-width="1" fill="none" fill-rule="evenodd"><g id="icons-+-labels" transform="translate(-271.000000, -205.000000)"><g id="icon-more" transform="translate(271.000000, 205.000000)"><g id="Oval"><use fill="black" fill-opacity="1" filter="url(#filter-3)" xlink:href="#path-2"></use><use fill="url(#linearGradient-1)" fill-rule="evenodd" xlink:href="#path-2"></use></g><path d="M13,16.8731559 C13,16.3909252 13.3917508,16 13.875,16 L37.125,16 C37.6082492,16 38,16.3909252 38,16.8731559 C38,17.3553866 37.6082492,17.7463118 37.125,17.7463118 L13.875,17.7463118 C13.3917508,17.7463118 13,17.3553866 13,16.8731559 Z M37.125,24.1268441 L13.875,24.1268441 C13.3917508,24.1268441 13,24.5177693 13,25 C13,25.4822307 13.3917508,25.8731559 13.875,25.8731559 L37.125,25.8731559 C37.6082492,25.8731559 38,25.4822307 38,25 C38,24.5177693 37.6082492,24.1268441 37.125,24.1268441 Z M26,32.2536882 L13.875,32.2536882 C13.3917508,32.2536882 13,32.6446134 13,33.1268441 C13,33.6090748 13.3917508,34 13.875,34 L26,34 C26.4832492,34 26.875,33.6090748 26.875,33.1268441 C26.875,32.6446134 26.4832492,32.2536882 26,32.2536882 Z" id="Shape" fill="url(#linearGradient-4)" fill-rule="nonzero"></path></g></g></g></svg> 