<?xml version="1.0" encoding="UTF-8"?> <svg xmlns="http://www.w3.org/2000/svg" xmlns:xlink="http://www.w3.org/1999/xlink" width="382px" height="496px" viewBox="0 0 382 496" version="1.1"><title>Path</title><g id="Page-1" stroke="none" stroke-width="1" fill="none" fill-rule="evenodd"><g id="Artboard" transform="translate(-151.000000, -659.000000)" stroke="#FFFFFF" stroke-width="20"><path d="M486.865467,946.872429 C487.340628,945.445011 487.910821,943.446626 488.766111,942.20953 C490.666755,939.545017 492.377335,936.499858 494.753141,934.977279 C497.033914,933.4547 497.414043,930.695025 498.554429,926.222448 C498.839526,918.324068 499.979912,917.848262 500.360041,916.89665 C500.74017,916.040199 501.310363,913.375685 503.115975,910.140204 C504.446426,907.761174 506.157006,902.812792 505.491781,901.480535 C504.351394,899.006343 503.30604,896.817636 502.165653,892.725704 C500.455073,882.828939 501.880557,879.498296 503.876233,876.453138 C506.917264,871.8854 508.722876,869.125725 511.763907,867.603146 C513.18939,866.937017 512.999326,864.177342 512.714229,862.274118 C511.953972,857.516058 513.379455,857.801542 514.234745,855.32735 C514.995002,852.757998 515.75526,849.427356 515.75526,848.570905 C515.75526,847.714454 515.280099,845.525746 515.090035,844.383812 C514.709906,842.385426 514.424809,839.53059 514.995002,838.388656 C515.850292,836.770915 516.705582,835.058014 516.61055,833.535434 C516.61055,832.869306 517.370808,831.917694 517.750937,830.870921 C518.036033,829.824147 518.701259,827.445117 518.701259,825.541893 C518.701259,824.970926 519.461517,821.164478 519.841645,818.404803 C520.791968,812.980614 520.126742,810.3161 519.746613,808.69836 C519.17642,806.509652 517.941001,805.462879 518.036033,804.701589 C518.131066,803.749977 517.845969,800.609658 517.655904,798.706433 C517.46584,797.65966 522.122419,791.283859 522.882676,790.046764 C523.262805,789.475797 522.59758,785.098381 522.59758,784.146769 C522.59758,783.195157 521.552225,778.627419 521.552225,777.485485 C521.552225,776.248389 521.74229,775.487099 521.74229,774.154843 C521.74229,772.917747 521.647257,771.014523 521.457193,768.540331 C521.267129,764.162916 521.647257,759.595178 521.647257,758.453244 C521.647257,757.406471 519.936678,757.501632 516.990679,755.883891 C514.04468,754.361312 507.58249,747.985511 506.537135,747.509705 C505.491781,747.033899 500.265009,746.082287 497.509075,746.082287 C494.753141,746.082287 488.956175,747.509705 486.390306,747.89035 C483.824436,748.270995 480.688373,747.12906 479.167857,746.748416 C477.55231,746.27261 474.796375,745.51132 473.560956,745.606481 C470.044765,745.987126 464.342832,746.082287 461.967026,745.701642 C459.11606,745.130675 456.645222,744.369385 455.219739,743.512935 C453.98432,742.656484 453.509159,742.941967 452.083676,741.609711 C450.848257,740.372615 450.658193,739.801648 449.802903,739.706486 C448.947613,739.516164 440.584778,738.850036 438.96923,737.327456 C437.353682,735.804877 435.262974,733.140363 434.122587,727.33553 C432.982201,721.721019 434.977877,717.724248 437.068586,716.582314 C440.299681,714.869412 444.861227,712.109737 447.237033,711.919415 C448.282387,711.824253 445.906582,707.63716 444.671163,703.450067 C444.196002,701.832327 441.820197,702.212972 436.593425,696.408138 C434.217619,693.743624 430.131234,688.604919 429.08588,686.796857 C428.040525,685.083955 429.275944,684.037182 428.135558,683.94202 C426.710074,683.846859 421.958464,684.037182 414.545951,682.704925 C407.038406,681.277507 402.191763,679.279121 399.91099,678.517832 C397.630216,677.851703 392.403445,676.04364 390.787897,675.472673 C389.172349,674.806545 385.846222,673.474288 382.900223,672.427515 C379.954224,671.380741 378.718806,669.096872 377.19829,669 C375.772807,668.90655 370.165906,672.808159 363.608683,673.759771 C356.956428,674.711384 354.770687,672.998482 351.159463,672.522676 C347.453207,672.04687 344.032047,671.28558 339.660565,670.904935 C335.289083,670.619452 322.649798,672.998482 320.464057,673.188804 C318.278317,673.474288 315.142253,674.996867 312.386319,674.996867 C310.675739,674.996867 300.887421,677.851703 299.176841,678.232348 C297.466261,678.612993 294.995424,677.661381 293.760005,678.137187 C291.954393,678.708154 288.913362,679.374283 288.058072,679.564605 C287.202782,679.754927 274.373433,684.132343 272.09266,684.608149 C269.52679,685.179116 265.820534,686.32105 262.874535,687.558146 C260.973891,688.319436 259.738472,689.651693 258.122924,690.793627 C252.611056,694.695237 251.09054,694.885559 248.429638,695.646849 C246.719058,696.122655 245.863768,696.883944 242.06248,697.074267 C238.261191,697.264589 237.215837,698.025879 237.215837,698.692007 C237.120805,701.26136 236.265515,706.495226 237.310869,707.066193 C239.401578,708.208128 244.533317,716.677475 244.818414,722.006502 C245.103511,727.811336 244.343253,731.903268 244.153188,733.616169 C243.963124,735.138749 243.77306,736.090361 243.012802,736.946811 C242.252544,737.803262 237.690998,739.325842 234.840031,739.516164 C232.084097,739.706486 230.563582,739.801648 220.585199,737.232295 C212.792557,735.23391 212.0323,734.377459 211.17701,733.235524 C210.32172,732.09359 208.326043,731.141978 206.995592,730.47585 C205.570109,729.809721 204.239658,729.429076 202.719143,728.096819 C201.388692,726.954885 195.30663,729.904882 186.943795,730.571011 C185.423279,730.666172 182.572313,735.709716 177.440573,738.37423 C173.354188,740.467776 171.453544,741.229066 170.123093,742.180678 C166.416836,744.75003 162.045354,745.130675 162.520515,746.367771 C163.375805,748.366156 161.760258,749.508091 162.235419,754.646796 C163.090709,763.306465 161.095032,767.779042 161,772.061296 C161,774.154843 163.375805,776.629034 164.516192,777.580646 C165.561546,778.437097 167.462191,781.482255 168.032384,783.670963 C168.602577,785.954832 167.747287,792.996761 166.606901,798.991917 C165.466514,805.082234 164.801289,811.362874 164.991353,813.45642 C165.181417,814.978999 166.891997,817.833836 167.747287,819.546737 C168.792642,821.545123 170.88335,828.682213 170.978383,832.3935 C171.073415,835.724142 170.218125,839.911235 170.218125,840.577364 C170.218125,841.243492 171.358511,843.908006 172.403866,845.335424 C173.734317,847.048326 176.395219,852.94832 177.155477,854.375738 C178.200831,856.374124 178.390895,858.848315 178.390895,858.848315 C178.390895,858.848315 178.105799,861.798312 177.915734,863.606375 C177.72567,865.319277 177.155477,871.504755 176.585283,879.212813 C176.01509,886.825709 176.01509,893.296671 176.680316,893.9628 C177.535605,894.81925 179.151153,896.246668 179.721346,897.293442 C180.29154,898.340215 185.138183,906.714401 185.708376,907.951497 C186.183537,909.188592 187.513988,912.424073 187.894117,914.898265 C188.369278,917.277295 189.034504,922.035355 189.3196,923.272451 C189.604697,924.890191 191.505341,935.07244 191.88547,936.69018 C192.360631,938.783727 193.120889,944.58856 193.405985,946.872429 C193.59605,949.536943 193.881147,953.819197 194.071211,954.580487 C194.261275,955.341777 194.926501,956.959517 195.781791,958.672419 C196.637081,960.765965 198.157596,966.570799 198.442693,967.903056 C198.72779,969.140151 198.252628,970.948214 198.632757,972.090149 C199.012886,973.232083 200.248305,974.278856 200.723466,975.230468 C201.198627,976.182081 204.714819,983.319171 206.330367,985.698201 C207.660818,987.791748 212.792557,997.49819 214.218041,1000.63851 C214.503137,1001.20948 214.598169,1001.49496 214.598169,1001.59012 C214.598169,1002.92238 214.788234,1003.77883 215.453459,1004.25464 C216.118685,1004.73044 217.164039,1007.01431 218.114361,1007.20463 C219.254748,1007.39496 220.490167,1008.06108 221.06036,1008.72721 C221.630553,1009.58366 226.097068,1013.96108 227.712615,1015.67398 C229.328163,1017.48204 230.468549,1018.62398 230.183453,1020.14656 C229.993388,1021.28849 230.088421,1023.28688 230.848678,1024.04817 C231.989065,1025.28526 233.889709,1026.23687 237.500933,1030.89977 C240.446932,1034.80138 241.587319,1038.13202 243.012802,1040.8917 C243.963124,1042.6046 245.293575,1047.17234 245.293575,1048.40943 C245.293575,1049.64653 246.053833,1050.50298 246.624026,1051.26427 C247.384284,1052.21588 249.37996,1053.92878 250.900476,1054.59491 C251.565701,1054.8804 253.846474,1056.87878 255.842151,1059.16265 C257.837828,1061.35136 259.453375,1063.15942 260.308665,1068.39329 C260.593762,1070.01103 260.593762,1071.24812 261.163955,1071.34329 C261.734148,1071.43845 262.969567,1071.81909 263.349696,1072.39006 C263.824857,1072.96103 263.824857,1073.81748 264.680147,1074.48361 C267.246017,1076.19651 267.626146,1078.00457 267.81621,1079.1465 C268.101307,1080.28844 268.576468,1083.52392 268.861564,1084.85618 C269.051629,1085.90295 274.183369,1091.32714 275.51382,1093.42068 C276.654206,1095.22875 278.269754,1095.41907 281.97601,1097.51262 C285.587234,1099.60616 285.872331,1100.84326 286.062395,1101.89003 C286.347492,1102.93681 286.157428,1108.07551 286.537557,1108.74164 C287.392846,1109.97873 287.96304,1109.40777 289.293491,1111.12067 C290.718974,1112.83357 292.524586,1115.40292 293.474908,1116.64002 C294.42523,1117.87711 301.837743,1122.54001 305.829096,1126.2513 C306.779418,1127.20291 309.250256,1129.77227 310.865804,1130.9142 C312.101223,1131.77065 313.71677,1132.53194 315.142253,1133.19807 C316.567737,1133.76904 318.563413,1134.53033 322.744831,1137.38516 C323.790185,1138.05129 326.16599,1139.19322 327.591474,1140.04968 C329.397086,1141.09645 334.338761,1143.95128 336.239405,1143.95128 C340.040694,1143.95128 342.03637,1145.3787 344.222111,1144.9029 C353.440236,1143.09483 355.435913,1141.85774 357.526621,1139.76419 C359.522298,1137.86097 362.563329,1133.48355 363.608683,1132.53194 C364.654038,1131.67549 367.980165,1127.86904 370.546035,1126.06098 C377.863516,1119.01905 377.008226,1120.44647 381.47474,1117.49647 C383.945577,1115.87873 386.131318,1115.40292 387.556802,1113.11905 C389.742542,1109.59809 393.163702,1104.45938 393.733896,1102.27068 C394.114024,1100.93842 394.969314,1100.55778 395.444475,1099.22552 C395.919636,1097.98842 395.729572,1097.03681 397.250088,1096.27552 C398.485506,1095.79972 401.336473,1092.46907 402.856988,1091.61262 C403.712278,1091.04165 403.047053,1088.18682 404.187439,1086.7594 C405.042729,1085.80779 408.558921,1083.42876 411.790016,1081.14489 C417.777046,1076.86264 422.148528,1070.96264 424.429301,1068.67877 C426.900139,1066.10942 425.759752,1062.58845 424.904462,1061.35136 L426.615042,1058.78201 C426.615042,1058.78201 429.751105,1055.26104 431.746782,1053.26266 C433.647426,1051.35943 438.589101,1045.07879 440.014584,1043.74654 C441.059939,1042.79492 440.489746,1037.27557 440.67981,1035.65783 C440.869874,1034.04009 444.386066,1031.28042 445.621485,1030.04332 C446.856904,1028.80623 447.332065,1027.75945 447.522129,1025.47558 C447.712194,1023.19172 449.327742,1013.39011 449.802903,1011.67721 C450.087999,1010.82076 450.468128,1010.15463 450.848257,1009.39334 C451.798579,1007.87076 452.938966,1006.82399 453.889288,1005.68205 C455.124707,1004.25464 461.206768,996.927223 464.057735,994.548193 L464.532896,994.167548 C465.958379,993.120775 465.198122,992.074002 465.103089,990.646584 C465.103089,989.980455 465.673283,988.648198 466.43354,987.315941 C467.193798,985.793362 468.334185,983.985299 469.189475,983.033687 C471.755344,980.178851 471.375216,978.561111 475.556633,975.420791 C477.077148,974.278856 476.506955,970.948214 476.506955,970.948214 C476.506955,970.948214 476.506955,969.711119 477.362245,967.712733 C478.217535,965.809509 481.258566,962.003061 483.15921,960.004676 C483.919468,959.243386 484.489661,956.769195 484.489661,955.532099 C484.489661,954.485326 484.299597,952.296618 485.535016,949.917588 C485.72508,949.441782 486.010177,949.061137 486.295273,948.680492 C486.485338,947.919203 486.675402,947.443397 486.865467,946.872429 Z" id="Path"></path></g></g></svg> 